# xmcd
#
# Track frame offsets: 
#        150
#        15787
#        33303
#        43110
#        52545
#        62924
#        75353
#        89037
#        104174
#        120240
#        131089
#        144619
#        155194
#        168321
#        176535
#        188594
#        198444
#        216144
#
# Disc length: 3058 seconds
#
# Revision: 0
# Processed by: cddbd v1.5.2PL0 Copyright (c) Steve Scherf et al.
# Submitted via: ExactAudioCopy v1.3
#
DISCID=f00bf012
DTITLE=Various Artist - Country's Greatest
DYEAR=2001
DGENRE=Country
TTITLE0=Billie Jo Spears - Blanket On The Ground
TTITLE1=Skeeter Davis - Always On My Mind
TTITLE2=Johnny Cash - Ballad Of A Teenage Queen
TTITLE3=Merle Travis - 16 Tons
TTITLE4=Jim Nesbitt - Running Bare
TTITLE5=Frankie Laine - High Noon
TTITLE6=B.J. Thomas - I'm So Lonsesome I Could Cry
TTITLE7=Earl Thomas Conley - The Night They Drove Old Dixie Down
TTITLE8=Lynn Anderson - The Devil Went Down To Georgia
TTITLE9=Dolly Parton - It Wasn't God Who Made Honkytonk Angels
TTITLE10=Don Williams - Where Do We Go From Here
TTITLE11=Patsy Cline - I Don't Wanna
TTITLE12=Donna Fargo - Daddy
TTITLE13=Willie Nelson - You Wouldn't Cross The Street To Say Goodbye
TTITLE14=Johnny Dollar - Big Big Rolling Man
TTITLE15=Hank Locklin - Please Help Me I'm Falling
TTITLE16=Glen Campbell - Southern Nights
TTITLE17=Charlie Rich - Behind Closed Doors
EXTD=
EXTT0=
EXTT1=
EXTT2=
EXTT3=
EXTT4=
EXTT5=
EXTT6=
EXTT7=
EXTT8=
EXTT9=
EXTT10=
EXTT11=
EXTT12=
EXTT13=
EXTT14=
EXTT15=
EXTT16=
EXTT17=
PLAYORDER=
